<svg id="Capa_1" enable-background="new 0 0 511 511" height="512" viewBox="0 0 511 511" width="512" xmlns="http://www.w3.org/2000/svg" fill="#fff"><g><path d="m403.5 148h-296c-59.276 0-107.5 48.224-107.5 107.5s48.224 107.5 107.5 107.5h296c59.276 0 107.5-48.224 107.5-107.5s-48.224-107.5-107.5-107.5zm0 200h-296c-51.005 0-92.5-41.495-92.5-92.5s41.495-92.5 92.5-92.5h296c51.005 0 92.5 41.495 92.5 92.5s-41.495 92.5-92.5 92.5z"/><path d="m183 255.5c0-12.407-10.093-22.5-22.5-22.5h-10c-4.136 0-7.5-3.364-7.5-7.5s3.364-7.5 7.5-7.5h29v-15h-29c-12.407 0-22.5 10.093-22.5 22.5s10.093 22.5 22.5 22.5h10c4.136 0 7.5 3.364 7.5 7.5s-3.364 7.5-7.5 7.5h-29v15h29c12.407 0 22.5-10.093 22.5-22.5z"/><path d="m218 278.5h15v-60.5h22.5v-15h-60v15h22.5z"/><path d="m403.5 218h22.5v60.5h15v-60.5h22.5v-15h-60z"/><path d="m283 264h25v14.5h15v-48c0-15.164-12.336-27.5-27.5-27.5s-27.5 12.336-27.5 27.5v48h15zm0-33.5c0-6.893 5.607-12.5 12.5-12.5s12.5 5.607 12.5 12.5v18.5h-25z"/><path d="m353 252h11.906l3.552 2.791c3.521 2.767 5.542 6.923 5.542 11.402v12.307h15v-12.307c0-7.279-2.629-14.135-7.337-19.47 5.681-4.491 9.337-11.436 9.337-19.223 0-13.509-10.991-24.5-24.5-24.5h-28.5v75.5h15zm0-34h13.5c5.238 0 9.5 4.262 9.5 9.5s-4.262 9.5-9.5 9.5h-13.5z"/><path d="m51 307.38 70.108-51.88-70.108-51.88zm15-74 29.892 22.12-29.892 22.12z"/><path d="m161.5 293h250v15h-250z"/><path d="m131.5 293h15v15h-15z"/><path d="m426.5 293h15v15h-15z"/></g></svg>